<svg aria-hidden="true" style="position: absolute; width: 0; height: 0; overflow: hidden;" version="1.1" xmlns="http://www.w3.org/2000/svg" xmlns:xlink="http://www.w3.org/1999/xlink">
<defs>
<symbol id="github-icon" viewBox="0 0 32 32">
<path d="M16 0c-8.789 0-16 7.211-16 16 0 7.499 5.262 14.312 12.25 16v-5.293c-0.276 0.070-0.593 0.109-0.919 0.109-0.398 0-0.781-0.059-1.143-0.169l0.028 0.007c-0.946-0.278-1.714-0.909-2.285-1.869-0.363-0.613-1.008-1.28-1.68-1.23l-0.165-1.867c1.454-0.125 2.71 0.886 3.456 2.139 0.333 0.558 0.715 0.885 1.205 1.029 0.472 0.141 0.981 0.074 1.573-0.136 0.149-1.186 0.693-1.629 1.104-2.256-4.168-0.621-5.829-2.832-6.488-4.576-0.874-2.318-0.405-5.213 1.139-7.043 0.030-0.035 0.085-0.128 0.064-0.192-0.709-2.141 0.154-3.91 0.186-4.098 0.818 0.24 0.95-0.243 3.552 1.336l0.448 0.27c0.189 0.112 0.128 0.048 0.317 0.032 1.003-0.282 2.157-0.452 3.349-0.469l0.010-0c1.136 0.014 2.272 0.176 3.403 0.483l0.146 0.016c-0.013-0.003 0.040-0.010 0.128-0.062 3.248-1.968 3.131-1.325 4.003-1.608 0.032 0.189 0.882 1.987 0.182 4.099-0.096 0.291 2.816 2.957 1.202 7.235-0.659 1.744-2.32 3.957-6.486 4.578 0.534 0.816 1.176 1.248 1.173 2.928v6.606c6.986-1.688 12.25-8.501 12.25-16 0-8.789-7.211-16-16-16z"></path>
</symbol>
<symbol id="telegram-icon" viewBox="0 0 32 32">
<path d="M12.612 19.671l-0.49 6.444c0.703 0 1.007-0.282 1.372-0.62l3.292-2.938 6.822 4.665c1.251 0.65 2.134 0.307 2.473-1.075l4.477-19.587c0.399-1.727-0.669-2.401-1.887-1.978l-26.323 9.407c-1.796 0.652-1.77 1.585-0.305 2.012l6.729 1.952 15.632-9.129c0.736-0.455 1.405-0.204 0.855 0.252l-12.647 10.596z"></path>
</symbol>
<symbol id="facebook-icon" viewBox="0 0 16 32">
<path d="M14.143 15.971h-4.033v14.865h-6.112v-14.865h-2.906v-5.222h2.906v-3.382c0-2.417 1.142-6.204 6.167-6.204l4.527 0.019v5.072h-3.284c-0.538 0-1.297 0.272-1.297 1.425v3.073h4.567l-0.534 5.219z"></path>
</symbol>
<symbol id="quotes-icon" viewBox="0 0 54 40">
  <path d="M40.018 0c2.41 0 4.687.65 6.83 1.951 2.143 1.301 3.884 3.17 5.223 5.61C53.357 10 54 12.873 54 16.179s-.804 6.531-2.41 9.675c-.536 1.138-1.5 2.601-2.894 4.39-1.446 1.788-2.785 3.333-4.017 4.634L39.616 40 36 33.984a27.548 27.548 0 0 0 6.67-5.854c1.928-2.276 2.892-4.363 2.892-6.26 0-.976-.214-1.762-.642-2.358-1.875 1.355-3.965 2.033-6.268 2.033-1.66 0-3.241-.515-4.741-1.545a10.708 10.708 0 0 1-3.697-3.902c-.964-1.572-1.446-3.198-1.446-4.878 0-1.898.562-3.713 1.687-5.448a12.784 12.784 0 0 1 4.26-4.227C36.428.515 38.195 0 40.017 0ZM11.17 0c2.41 0 4.687.65 6.83 1.951 2.143 1.301 3.884 3.17 5.223 5.61 1.286 2.439 1.929 5.312 1.929 8.618 0 2.33-.295 4.417-.884 6.26-.59 1.897-1.607 3.875-3.054 5.935-1.393 1.951-2.705 3.577-3.937 4.878-1.232 1.355-3.375 3.604-6.429 6.748l-3.616-6.016a27.551 27.551 0 0 0 6.67-5.854c1.928-2.276 2.893-4.363 2.893-6.26 0-.976-.215-1.762-.643-2.358-1.875 1.355-3.965 2.033-6.268 2.033-1.66 0-3.241-.515-4.741-1.545a10.708 10.708 0 0 1-3.697-3.902C.482 14.526 0 12.9 0 11.22c0-1.898.536-3.713 1.607-5.448a12.784 12.784 0 0 1 4.26-4.227C7.58.515 9.347 0 11.17 0Z"/>
</symbol>
<symbol id="home-icon" viewBox="0 0 13 12">
  <path d="M12.845 5.855a.591.591 0 0 0-.049-.846L7.256.162a.69.69 0 0 0-.9.01L.798 5.268a.588.588 0 0 0-.027.844l.14.145c.23.24.604.27.834.064l.415-.372v5.446c0 .335.27.605.605.605H4.93c.334 0 .605-.27.605-.605v-3.81H8.3v3.81c-.005.334.234.605.568.605h2.296c.334 0 .604-.27.604-.605v-5.37l.257.226c.141.124.438.024.662-.223l.158-.173Z"/>
</symbol>
<symbol id="icon-logo" viewBox="0 0 32 34">
<path d="M13.589 4.994c0.087-0.087 0.137-0.208 0.137-0.332s-0.051-0.244-0.137-0.331c-0.088-0.088-0.208-0.138-0.331-0.138s-0.244 0.050-0.332 0.138c-0.087 0.087-0.137 0.208-0.137 0.331s0.050 0.244 0.137 0.332c0.088 0.087 0.208 0.137 0.332 0.137s0.244-0.050 0.331-0.137z"></path>
<path d="M17.439 4.356c-0.087 0.087-0.137 0.208-0.137 0.331s0.050 0.244 0.137 0.331c0.087 0.088 0.208 0.138 0.332 0.138s0.244-0.050 0.331-0.138c0.087-0.087 0.137-0.208 0.137-0.331s-0.050-0.244-0.137-0.331c-0.087-0.088-0.207-0.138-0.331-0.138s-0.244 0.050-0.332 0.138z"></path>
<path d="M15.237 5.58c-0.124 0-0.244 0.050-0.332 0.137s-0.137 0.208-0.137 0.331c0 0.124 0.050 0.244 0.137 0.331s0.208 0.138 0.332 0.138c0.123 0 0.244-0.050 0.331-0.138s0.137-0.208 0.137-0.331c0-0.123-0.050-0.244-0.137-0.331s-0.208-0.137-0.331-0.137z"></path>
<path d="M15.634 3.486c-0.087-0.087-0.208-0.137-0.332-0.137s-0.244 0.050-0.331 0.137c-0.087 0.087-0.137 0.208-0.137 0.332s0.050 0.244 0.137 0.331c0.088 0.088 0.208 0.138 0.331 0.138s0.244-0.050 0.332-0.138c0.087-0.088 0.137-0.208 0.137-0.331s-0.050-0.244-0.137-0.332z"></path>
<path d="M23.919 7.138l4.447-4.413c0.148-0.147 0.23-0.344 0.23-0.553s-0.082-0.406-0.23-0.553l-1.404-1.393c-0.147-0.146-0.343-0.227-0.552-0.227s-0.405 0.081-0.552 0.227l-4.98 4.942c-0.297-0.807-0.781-1.542-1.433-2.153-0.189-0.177-0.486-0.167-0.663 0.021s-0.168 0.486 0.021 0.663c0.636 0.596 1.079 1.332 1.306 2.142-0.261-0.036-0.527-0.055-0.798-0.055-0.574 0-1.128 0.084-1.651 0.24-0.014 0.003-0.027 0.007-0.040 0.012-0.98 0.3-1.845 0.853-2.517 1.581-0.167-0.195-0.349-0.379-0.545-0.551-0.194-0.171-0.491-0.152-0.662 0.042s-0.152 0.491 0.042 0.662c0.212 0.186 0.404 0.39 0.575 0.608-0.548 0.85-0.865 1.856-0.865 2.932 0 0.136 0.005 0.271 0.015 0.404-0.068-0.038-0.145-0.059-0.228-0.059h-1.108c-0.259 0-0.469 0.21-0.469 0.469s0.21 0.469 0.469 0.469h1.109c0.131 0 0.25-0.054 0.335-0.141 0.043 0.197 0.096 0.389 0.159 0.578h-7.479c-0.26-0.568-0.406-1.196-0.406-1.857 0-2.53 2.119-4.588 4.724-4.588 0.562 0 1.112 0.095 1.634 0.282 0.244 0.087 0.512-0.040 0.599-0.283s-0.040-0.512-0.283-0.599c-0.531-0.19-1.086-0.3-1.652-0.328 0.617-1.876 2.396-3.237 4.491-3.237 0.59 0 1.165 0.106 1.71 0.316 0.241 0.093 0.513-0.027 0.606-0.269s-0.027-0.513-0.269-0.606c-0.652-0.251-1.341-0.379-2.047-0.379-2.63 0-4.846 1.79-5.48 4.207-2.797 0.334-4.971 2.666-4.971 5.484 0 0.651 0.117 1.276 0.33 1.857h-0.968c-0.589 0-1.068 0.479-1.068 1.068v2.877c0 1.187 0.77 2.198 1.84 2.569 1.581 2.993 4.486 5.192 7.938 5.825 0.341 0.562 0.524 1.205 0.524 1.879 0 0.552-0.127 1.095-0.367 1.587h-4.459c-0.877 0-1.59 0.709-1.59 1.582s0.713 1.582 1.59 1.582h12.709c0.877 0 1.59-0.709 1.59-1.582s-0.713-1.582-1.59-1.582h-4.459c-0.239-0.492-0.367-1.035-0.367-1.587 0-0.674 0.183-1.317 0.524-1.879 3.452-0.633 6.357-2.833 7.938-5.825 1.070-0.371 1.84-1.382 1.84-2.569v-2.877c0-0.589-0.479-1.068-1.068-1.068h-1.305c0.182-0.541 0.281-1.119 0.281-1.719 0-1.44-0.567-2.752-1.495-3.737l0.436-0.433c0.001-0.001 0.003-0.003 0.004-0.004zM26.411 1l1.182 1.173-1.165 1.156-0.752-1.6 0.734-0.729zM24.97 2.429l0.752 1.6-0.637 0.632-0.752-1.6 0.637-0.632zM22.283 5.096l0.752 1.6-0.254 0.252c-0.251-0.191-0.519-0.361-0.801-0.509l-0.334-0.711 0.637-0.632zM18.244 6.843c0.343-0.077 0.701-0.12 1.068-0.12s0.725 0.042 1.068 0.12v6.187h-2.137v-6.187zM17.306 7.159v5.872h-2.374c-0.222-0.531-0.344-1.111-0.344-1.719 0-1.834 1.114-3.419 2.718-4.153zM21.589 29.774c0.36 0 0.653 0.289 0.653 0.644s-0.293 0.644-0.653 0.644h-12.709c-0.36 0-0.653-0.289-0.653-0.644s0.293-0.644 0.653-0.644h12.709zM16.112 28.837h-1.755c0.187-0.505 0.286-1.042 0.286-1.587 0-0.604-0.116-1.189-0.338-1.731 0.307 0.025 0.617 0.038 0.93 0.038s0.623-0.013 0.93-0.038c-0.222 0.542-0.338 1.127-0.338 1.731 0 0.545 0.098 1.082 0.286 1.587zM15.234 24.62c-2.286 0-4.4-0.741-6.114-1.992h12.228c-1.713 1.251-3.828 1.992-6.114 1.992zM25.998 13.968c0.071 0 0.13 0.060 0.13 0.131v2.877c0 0.983-0.809 1.783-1.804 1.783s-1.804-0.8-1.804-1.783c0-0.259-0.21-0.469-0.469-0.469s-0.469 0.21-0.469 0.469c0 0.548-0.25 1.058-0.685 1.399-0.204 0.16-0.24 0.454-0.080 0.658s0.454 0.24 0.658 0.080c0.226-0.177 0.42-0.385 0.576-0.615 0.448 0.656 1.177 1.108 2.014 1.186-0.451 0.734-0.991 1.408-1.606 2.006h-14.453c-0.616-0.598-1.156-1.272-1.606-2.006 0.838-0.078 1.567-0.53 2.015-1.188 0.493 0.724 1.328 1.201 2.272 1.201s1.779-0.477 2.272-1.201c0.493 0.724 1.328 1.201 2.273 1.201 0.943 0 1.777-0.475 2.27-1.197 0.373 0.55 0.947 0.96 1.637 1.123 0.252 0.059 0.504-0.096 0.564-0.348s-0.096-0.504-0.348-0.564c-0.814-0.192-1.382-0.906-1.382-1.735 0-0.259-0.21-0.469-0.469-0.469s-0.469 0.21-0.469 0.469c0 0.983-0.809 1.783-1.804 1.783s-1.804-0.8-1.804-1.783c0-0.259-0.21-0.469-0.469-0.469s-0.469 0.21-0.469 0.469c0 0.983-0.809 1.783-1.804 1.783s-1.804-0.8-1.804-1.783c0-0.259-0.21-0.469-0.469-0.469s-0.469 0.21-0.469 0.469c0 0.983-0.809 1.783-1.804 1.783s-1.804-0.8-1.804-1.783v-2.877c0-0.071 0.060-0.131 0.13-0.131h21.527zM24.037 11.312c0 0.608-0.123 1.188-0.344 1.719h-2.374v-5.872c1.605 0.734 2.718 2.319 2.718 4.153zM22.989 4.395l0.637-0.632 0.752 1.6-0.637 0.632-0.752-1.6z"></path>
<path d="M10.975 8.309c0.259 0 0.469-0.21 0.469-0.469s-0.21-0.469-0.469-0.469h-1.188c-0.259 0-0.469 0.21-0.469 0.469s0.21 0.469 0.469 0.469h1.188z"></path>
<path d="M9.306 9.49c0-0.259-0.21-0.469-0.469-0.469h-1.109c-0.259 0-0.469 0.21-0.469 0.469s0.21 0.469 0.469 0.469h1.109c0.259 0 0.469-0.21 0.469-0.469z"></path>
<path d="M11.608 9.959h1.108c0.259 0 0.469-0.21 0.469-0.469s-0.21-0.469-0.469-0.469h-1.108c-0.259 0-0.469 0.21-0.469 0.469s0.21 0.469 0.469 0.469z"></path>
<path d="M9.642 11.719h1.108c0.259 0 0.469-0.21 0.469-0.469s-0.21-0.469-0.469-0.469h-1.108c-0.259 0-0.469 0.21-0.469 0.469s0.21 0.469 0.469 0.469z"></path>
<path d="M7.079 11.656c-0.259 0-0.469 0.21-0.469 0.469s0.21 0.469 0.469 0.469h1.109c0.259 0 0.469-0.21 0.469-0.469s-0.21-0.469-0.469-0.469h-1.109z"></path>
</symbol>
<symbol id="icon-person-black-1" viewBox="0 0 32 32">
<path d="M16 16c2.946 0 5.333-2.388 5.333-5.333s-2.388-5.333-5.333-5.333v0c-2.946 0-5.333 2.388-5.333 5.333s2.388 5.333 5.333 5.333v0zM16 18.667c-3.561 0-10.667 1.787-10.667 5.333v1.333c0 0.732 0.599 1.333 1.333 1.333h18.667c0.732 0 1.333-0.601 1.333-1.333v-1.333c0-3.547-7.108-5.333-10.667-5.333z"></path>
</symbol>
<symbol id="icon-phone-black-1" viewBox="0 0 32 32">
<path d="M24.882 19.774l-3.268-0.373c-0.090-0.011-0.194-0.018-0.3-0.018-0.707 0-1.347 0.287-1.81 0.75l-2.368 2.368c-3.669-1.894-6.585-4.81-8.427-8.372l-0.051-0.108 2.382-2.377c0.463-0.463 0.75-1.103 0.75-1.81 0-0.106-0.006-0.21-0.019-0.312l0.001 0.012-0.373-3.243c-0.155-1.287-1.24-2.276-2.557-2.276-0.001 0-0.002 0-0.003 0h-2.226c-1.454 0-2.663 1.209-2.574 2.661 0.683 10.987 9.47 19.762 20.444 20.444 1.452 0.089 2.663-1.12 2.663-2.574v-2.226c0-0.004 0-0.008 0-0.012 0-1.308-0.985-2.386-2.253-2.532l-0.012-0.001z"></path>
</symbol>
<symbol id="icon-email-black-1" viewBox="0 0 32 32">
<path d="M26.667 5.333h-21.333c-1.467 0-2.652 1.2-2.652 2.667l-0.014 16c0 1.467 1.2 2.667 2.667 2.667h21.333c1.467 0 2.667-1.2 2.667-2.667v-16c0-1.467-1.2-2.667-2.667-2.667zM26.133 11.001l-9.426 5.892c-0.201 0.126-0.446 0.2-0.708 0.2s-0.506-0.075-0.713-0.204l0.006 0.003-9.426-5.892c-0.336-0.201-0.557-0.562-0.557-0.975 0-0.625 0.507-1.132 1.132-1.132 0.233 0 0.449 0.070 0.629 0.19l-0.004-0.003 8.933 5.586 8.933-5.588c0.176-0.118 0.392-0.188 0.624-0.188 0.625 0 1.132 0.507 1.132 1.132 0 0.413-0.221 0.775-0.552 0.972l-0.005 0.003z"></path>
</symbol>
<symbol id="icon-checked-1" viewBox="0 0 42 32">
<path fill="#fff" style="fill: var(--color1, #fff); stroke: var(--color1, #fff)" stroke="#fff" stroke-linejoin="miter" stroke-linecap="butt" stroke-miterlimit="4" stroke-width="0.64" d="M6.262 15.206l-0.221-0.211-0.221 0.208-3.085 2.925 0.243 0.234 11.408 10.88 0.221-0.211 24.256-23.139-0.243-0.23-3.043-2.902-0.221 0.211-20.97 19.987-8.125-7.75z"></path>
</symbol>
</defs>
</svg>
